# Blender v2.79 (sub 0) OBJ File: ''
# www.blender.org
mtllib abc.mtl
o Icosphere
v -1.094177 -1.069020 2.562325
v -0.370569 -0.516240 3.088051
v -1.370565 -0.516240 3.412975
v -1.988603 -0.516236 2.562325
v -1.370565 -0.516240 1.711676
v -0.370569 -0.516240 2.036600
v -0.817789 0.378200 3.412975
v -1.817784 0.378199 3.088051
v -1.817784 0.378199 2.036600
v -0.817789 0.378200 1.711676
v -0.199750 0.378195 2.562325
v -1.094177 0.930980 2.562325
v -1.256632 -0.919675 3.062321
v -0.668854 -0.919674 2.871337
v -0.831308 -0.594758 3.371337
v -0.243529 -0.594756 2.562325
v -0.668854 -0.919674 2.253314
v -1.619906 -0.919672 2.562325
v -1.782366 -0.594756 3.062322
v -1.256632 -0.919675 2.062330
v -1.782366 -0.594756 2.062329
v -0.831308 -0.594758 1.753314
v -0.143119 -0.069020 2.871338
v -0.143119 -0.069020 2.253313
v -1.094177 -0.069020 3.562325
v -0.506391 -0.069020 3.371342
v -2.045234 -0.069020 2.871338
v -1.681962 -0.069020 3.371342
v -1.681962 -0.069020 1.753309
v -2.045234 -0.069020 2.253313
v -0.506391 -0.069020 1.753309
v -1.094177 -0.069020 1.562325
v -0.405987 0.456716 3.062322
v -1.357045 0.456717 3.371337
v -1.944824 0.456716 2.562325
v -1.357045 0.456717 1.753314
v -0.405987 0.456716 2.062329
v -0.931721 0.781634 3.062321
v -0.568447 0.781631 2.562325
v -1.519499 0.781634 2.871337
v -1.519499 0.781634 2.253314
v -0.931721 0.781634 2.062330
vn 0.1024 -0.9435 0.3151
vn 0.7002 -0.6617 0.2680
vn -0.2680 -0.9435 0.1947
vn -0.2680 -0.9435 -0.1947
vn 0.1024 -0.9435 -0.3151
vn 0.9050 -0.3304 0.2680
vn 0.0247 -0.3304 0.9435
vn -0.8897 -0.3304 0.3151
vn -0.5746 -0.3304 -0.7488
vn 0.5346 -0.3304 -0.7779
vn 0.8026 -0.1256 0.5831
vn -0.3066 -0.1256 0.9435
vn -0.9921 -0.1256 0.0000
vn -0.3066 -0.1256 -0.9435
vn 0.8026 -0.1256 -0.5831
vn 0.4089 0.6617 0.6284
vn -0.4713 0.6617 0.5831
vn -0.7002 0.6617 -0.2680
vn 0.0385 0.6617 -0.7488
vn 0.7240 0.6617 -0.1947
vn 0.2680 0.9435 -0.1947
vn 0.4911 0.7947 -0.3568
vn 0.4089 0.6617 -0.6284
vn -0.1024 0.9435 -0.3151
vn -0.1876 0.7947 -0.5773
vn -0.4713 0.6617 -0.5831
vn -0.3313 0.9435 0.0000
vn -0.6071 0.7947 0.0000
vn -0.7002 0.6617 0.2680
vn -0.1024 0.9435 0.3151
vn -0.1876 0.7947 0.5773
vn 0.0385 0.6617 0.7488
vn 0.2680 0.9435 0.1947
vn 0.4911 0.7947 0.3568
vn 0.7240 0.6617 0.1947
vn 0.8897 0.3304 -0.3151
vn 0.7947 0.1876 -0.5773
vn 0.5746 0.3304 -0.7488
vn -0.0247 0.3304 -0.9435
vn -0.3035 0.1876 -0.9342
vn -0.5346 0.3304 -0.7779
vn -0.9050 0.3304 -0.2680
vn -0.9822 0.1876 0.0000
vn -0.9050 0.3304 0.2680
vn -0.5346 0.3304 0.7779
vn -0.3035 0.1876 0.9342
vn -0.0247 0.3304 0.9435
vn 0.5746 0.3304 0.7488
vn 0.7947 0.1876 0.5773
vn 0.8897 0.3304 0.3151
vn 0.3066 0.1256 -0.9435
vn 0.3035 -0.1876 -0.9342
vn 0.0247 -0.3304 -0.9435
vn -0.8026 0.1256 -0.5831
vn -0.7947 -0.1876 -0.5773
vn -0.8897 -0.3304 -0.3151
vn -0.8026 0.1256 0.5831
vn -0.7947 -0.1876 0.5773
vn -0.5746 -0.3304 0.7488
vn 0.3066 0.1256 0.9435
vn 0.3035 -0.1876 0.9342
vn 0.5346 -0.3304 0.7779
vn 0.9921 0.1256 0.0000
vn 0.9822 -0.1876 0.0000
vn 0.9050 -0.3304 -0.2680
vn 0.4713 -0.6617 -0.5831
vn 0.1876 -0.7947 -0.5773
vn -0.0385 -0.6617 -0.7488
vn -0.4089 -0.6617 -0.6284
vn -0.4911 -0.7947 -0.3568
vn -0.7240 -0.6617 -0.1947
vn -0.7240 -0.6617 0.1947
vn -0.4911 -0.7947 0.3568
vn -0.4089 -0.6617 0.6284
vn 0.7002 -0.6617 -0.2680
vn 0.6071 -0.7947 0.0000
vn 0.3313 -0.9435 0.0000
vn -0.0385 -0.6617 0.7488
vn 0.1876 -0.7947 0.5773
vn 0.4713 -0.6617 0.5831
usemtl None
s off
f 1//1 14//1 13//1
f 2//2 14//2 16//2
f 1//3 13//3 18//3
f 1//4 18//4 20//4
f 1//5 20//5 17//5
f 2//6 16//6 23//6
f 3//7 15//7 25//7
f 4//8 19//8 27//8
f 5//9 21//9 29//9
f 6//10 22//10 31//10
f 2//11 23//11 26//11
f 3//12 25//12 28//12
f 4//13 27//13 30//13
f 5//14 29//14 32//14
f 6//15 31//15 24//15
f 7//16 33//16 38//16
f 8//17 34//17 40//17
f 9//18 35//18 41//18
f 10//19 36//19 42//19
f 11//20 37//20 39//20
f 39//21 42//21 12//21
f 39//22 37//22 42//22
f 37//23 10//23 42//23
f 42//24 41//24 12//24
f 42//25 36//25 41//25
f 36//26 9//26 41//26
f 41//27 40//27 12//27
f 41//28 35//28 40//28
f 35//29 8//29 40//29
f 40//30 38//30 12//30
f 40//31 34//31 38//31
f 34//32 7//32 38//32
f 38//33 39//33 12//33
f 38//34 33//34 39//34
f 33//35 11//35 39//35
f 24//36 37//36 11//36
f 24//37 31//37 37//37
f 31//38 10//38 37//38
f 32//39 36//39 10//39
f 32//40 29//40 36//40
f 29//41 9//41 36//41
f 30//42 35//42 9//42
f 30//43 27//43 35//43
f 27//44 8//44 35//44
f 28//45 34//45 8//45
f 28//46 25//46 34//46
f 25//47 7//47 34//47
f 26//48 33//48 7//48
f 26//49 23//49 33//49
f 23//50 11//50 33//50
f 31//51 32//51 10//51
f 31//52 22//52 32//52
f 22//53 5//53 32//53
f 29//54 30//54 9//54
f 29//55 21//55 30//55
f 21//56 4//56 30//56
f 27//57 28//57 8//57
f 27//58 19//58 28//58
f 19//59 3//59 28//59
f 25//60 26//60 7//60
f 25//61 15//61 26//61
f 15//62 2//62 26//62
f 23//63 24//63 11//63
f 23//64 16//64 24//64
f 16//65 6//65 24//65
f 17//66 22//66 6//66
f 17//67 20//67 22//67
f 20//68 5//68 22//68
f 20//69 21//69 5//69
f 20//70 18//70 21//70
f 18//71 4//71 21//71
f 18//72 19//72 4//72
f 18//73 13//73 19//73
f 13//74 3//74 19//74
f 16//75 17//75 6//75
f 16//76 14//76 17//76
f 14//77 1//77 17//77
f 13//78 15//78 3//78
f 13//79 14//79 15//79
f 14//80 2//80 15//80
o Cone
v -0.364518 -0.073210 -1.317060
v -0.169428 -0.073210 -1.297845
v 0.018165 -0.073210 -1.240940
v 0.191052 -0.073210 -1.148530
v 0.342589 -0.073210 -1.024167
v 0.466952 -0.073210 -0.872630
v 0.559362 -0.073210 -0.699744
v 0.616267 -0.073210 -0.512151
v 0.635482 -0.073210 -0.317060
v 0.616267 -0.073210 -0.121970
v 0.559362 -0.073210 0.065623
v 0.466952 -0.073210 0.238510
v 0.342589 -0.073210 0.390047
v 0.191052 -0.073210 0.514409
v 0.018165 -0.073210 0.606819
v -0.169428 -0.073210 0.663725
v -0.364518 -0.073210 0.682940
v -0.559609 -0.073210 0.663725
v -0.747202 -0.073210 0.606819
v -0.920089 -0.073210 0.514409
v -1.071625 -0.073210 0.390046
v -1.195988 -0.073210 0.238509
v -1.288398 -0.073210 0.065623
v -0.364518 1.926790 -0.317060
v -1.345303 -0.073210 -0.121971
v -1.364518 -0.073210 -0.317061
v -1.345303 -0.073210 -0.512152
v -1.288397 -0.073210 -0.699745
v -1.195987 -0.073210 -0.872631
v -1.071624 -0.073210 -1.024168
v -0.920087 -0.073210 -1.148530
v -0.747200 -0.073210 -1.240940
v -0.559607 -0.073210 -1.297846
vn 0.0878 0.4455 -0.8910
vn 0.2599 0.4455 -0.8567
vn 0.4220 0.4455 -0.7896
vn 0.5680 0.4455 -0.6921
vn 0.6921 0.4455 -0.5680
vn 0.7896 0.4455 -0.4220
vn 0.8567 0.4455 -0.2599
vn 0.8910 0.4455 -0.0878
vn 0.8910 0.4455 0.0878
vn 0.8567 0.4455 0.2599
vn 0.7896 0.4455 0.4220
vn 0.6921 0.4455 0.5680
vn 0.5680 0.4455 0.6921
vn 0.4220 0.4455 0.7896
vn 0.2599 0.4455 0.8567
vn 0.0878 0.4455 0.8910
vn -0.0878 0.4455 0.8910
vn -0.2599 0.4455 0.8567
vn -0.4220 0.4455 0.7896
vn -0.5680 0.4455 0.6921
vn -0.6921 0.4455 0.5680
vn -0.7896 0.4455 0.4220
vn -0.8567 0.4455 0.2599
vn -0.8910 0.4455 0.0878
vn -0.8910 0.4455 -0.0878
vn -0.8567 0.4455 -0.2599
vn -0.7896 0.4455 -0.4220
vn -0.6921 0.4455 -0.5680
vn -0.5680 0.4455 -0.6921
vn -0.4220 0.4455 -0.7896
vn -0.2599 0.4455 -0.8567
vn -0.0878 0.4455 -0.8910
vn 0.0000 -1.0000 0.0000
usemtl None
s off
f 43//81 66//81 44//81
f 44//82 66//82 45//82
f 45//83 66//83 46//83
f 46//84 66//84 47//84
f 47//85 66//85 48//85
f 48//86 66//86 49//86
f 49//87 66//87 50//87
f 50//88 66//88 51//88
f 51//89 66//89 52//89
f 52//90 66//90 53//90
f 53//91 66//91 54//91
f 54//92 66//92 55//92
f 55//93 66//93 56//93
f 56//94 66//94 57//94
f 57//95 66//95 58//95
f 58//96 66//96 59//96
f 59//97 66//97 60//97
f 60//98 66//98 61//98
f 61//99 66//99 62//99
f 62//100 66//100 63//100
f 63//101 66//101 64//101
f 64//102 66//102 65//102
f 65//103 66//103 67//103
f 67//104 66//104 68//104
f 68//105 66//105 69//105
f 69//106 66//106 70//106
f 70//107 66//107 71//107
f 71//108 66//108 72//108
f 72//109 66//109 73//109
f 73//110 66//110 74//110
f 74//111 66//111 75//111
f 75//112 66//112 43//112
f 43//113 44//113 45//113 46//113 47//113 48//113 49//113 50//113 51//113 52//113 53//113 54//113 55//113 56//113 57//113 58//113 59//113 60//113 61//113 62//113 63//113 64//113 65//113 67//113 68//113 69//113 70//113 71//113 72//113 73//113 74//113 75//113
