# Blender v2.79 (sub 0) OBJ File: ''
# www.blender.org
mtllib ccobj.mtl
o Cone
v -2.918618 1.559760 -2.113528
v -2.723528 1.559760 -2.094313
v -2.535935 1.559760 -2.037407
v -2.363048 1.559760 -1.944997
v -2.211512 1.559760 -1.820635
v -2.087149 1.559760 -1.669098
v -1.994739 1.559760 -1.496211
v -1.937833 1.559760 -1.308618
v -1.918618 1.559760 -1.113528
v -1.937833 1.559760 -0.918438
v -1.994739 1.559760 -0.730844
v -2.087149 1.559760 -0.557958
v -2.211512 1.559760 -0.406421
v -2.363048 1.559760 -0.282058
v -2.535935 1.559760 -0.189648
v -2.723528 1.559760 -0.132742
v -2.918619 1.559760 -0.113528
v -3.113709 1.559760 -0.132743
v -3.301302 1.559760 -0.189648
v -3.474189 1.559760 -0.282058
v -3.625726 1.559760 -0.406421
v -3.750088 1.559760 -0.557958
v -3.842498 1.559760 -0.730845
v -2.918618 3.559760 -1.113528
v -3.899404 1.559760 -0.918438
v -3.918618 1.559760 -1.113529
v -3.899404 1.559760 -1.308619
v -3.842498 1.559760 -1.496212
v -3.750087 1.559760 -1.669099
v -3.625724 1.559760 -1.820635
v -3.474188 1.559760 -1.944998
v -3.301301 1.559760 -2.037408
v -3.113707 1.559760 -2.094313
vn 0.0878 0.4455 -0.8910
vn 0.2599 0.4455 -0.8567
vn 0.4220 0.4455 -0.7896
vn 0.5680 0.4455 -0.6921
vn 0.6921 0.4455 -0.5680
vn 0.7896 0.4455 -0.4220
vn 0.8567 0.4455 -0.2599
vn 0.8910 0.4455 -0.0878
vn 0.8910 0.4455 0.0878
vn 0.8567 0.4455 0.2599
vn 0.7896 0.4455 0.4220
vn 0.6921 0.4455 0.5680
vn 0.5680 0.4455 0.6921
vn 0.4220 0.4455 0.7896
vn 0.2599 0.4455 0.8567
vn 0.0878 0.4455 0.8910
vn -0.0878 0.4455 0.8910
vn -0.2599 0.4455 0.8567
vn -0.4220 0.4455 0.7896
vn -0.5680 0.4455 0.6921
vn -0.6921 0.4455 0.5680
vn -0.7896 0.4455 0.4220
vn -0.8567 0.4455 0.2599
vn -0.8910 0.4455 0.0878
vn -0.8910 0.4455 -0.0878
vn -0.8567 0.4455 -0.2599
vn -0.7896 0.4455 -0.4220
vn -0.6921 0.4455 -0.5680
vn -0.5680 0.4455 -0.6921
vn -0.4220 0.4455 -0.7896
vn -0.2599 0.4455 -0.8567
vn -0.0878 0.4455 -0.8910
vn 0.0000 -1.0000 -0.0000
usemtl None
s off
f 1//1 24//1 2//1
f 2//2 24//2 3//2
f 3//3 24//3 4//3
f 4//4 24//4 5//4
f 5//5 24//5 6//5
f 6//6 24//6 7//6
f 7//7 24//7 8//7
f 8//8 24//8 9//8
f 9//9 24//9 10//9
f 10//10 24//10 11//10
f 11//11 24//11 12//11
f 12//12 24//12 13//12
f 13//13 24//13 14//13
f 14//14 24//14 15//14
f 15//15 24//15 16//15
f 16//16 24//16 17//16
f 17//17 24//17 18//17
f 18//18 24//18 19//18
f 19//19 24//19 20//19
f 20//20 24//20 21//20
f 21//21 24//21 22//21
f 22//22 24//22 23//22
f 23//23 24//23 25//23
f 25//24 24//24 26//24
f 26//25 24//25 27//25
f 27//26 24//26 28//26
f 28//27 24//27 29//27
f 29//28 24//28 30//28
f 30//29 24//29 31//29
f 31//30 24//30 32//30
f 32//31 24//31 33//31
f 33//32 24//32 1//32
f 1//33 2//33 3//33 4//33 5//33 6//33 7//33 8//33 9//33 10//33 11//33 12//33 13//33 14//33 15//33 16//33 17//33 18//33 19//33 20//33 21//33 22//33 23//33 25//33 26//33 27//33 28//33 29//33 30//33 31//33 32//33 33//33
o Cube_Cube.001
v -1.000000 -0.825922 1.000000
v -1.000000 1.174078 1.000000
v -1.000000 -0.825922 -1.000000
v -1.000000 1.174078 -1.000000
v 1.000000 -0.825922 1.000000
v 1.000000 1.174078 1.000000
v 1.000000 -0.825922 -1.000000
v 1.000000 1.174078 -1.000000
vn -1.0000 0.0000 0.0000
vn 0.0000 0.0000 -1.0000
vn 1.0000 0.0000 0.0000
vn 0.0000 0.0000 1.0000
vn 0.0000 -1.0000 0.0000
vn 0.0000 1.0000 0.0000
usemtl None
s off
f 34//34 35//34 37//34 36//34
f 36//35 37//35 41//35 40//35
f 40//36 41//36 39//36 38//36
f 38//37 39//37 35//37 34//37
f 36//38 40//38 38//38 34//38
f 41//39 37//39 35//39 39//39
